<mxfile host="65bd71144e">
    <diagram id="XGHwjZb183LgcA-fUZk-" name="第 1 页">
        <mxGraphModel dx="335" dy="143" grid="0" gridSize="10" guides="1" tooltips="1" connect="1" arrows="1" fold="1" page="1" pageScale="1" pageWidth="2000" pageHeight="2000" background="#F4F1DE" math="0" shadow="0">
            <root>
                <mxCell id="0"/>
                <mxCell id="1" parent="0"/>
                <mxCell id="48" style="edgeStyle=orthogonalEdgeStyle;orthogonalLoop=1;jettySize=auto;html=1;startArrow=classic;strokeColor=#E07A5F;fontColor=#393C56;curved=1;endArrow=classic;endFill=1;startFill=1;fontSize=20;labelBackgroundColor=#F4F1DE;" parent="1" source="37" target="43" edge="1">
                    <mxGeometry relative="1" as="geometry">
                        <Array as="points">
                            <mxPoint x="831" y="1010"/>
                        </Array>
                    </mxGeometry>
                </mxCell>
                <mxCell id="37" value="" style="points=[[0.5,0,0],[1,0.5,0],[0.5,1,0],[0,0.5,0],[0.145,0.145,0],[0.8555,0.145,0],[0.855,0.8555,0],[0.145,0.855,0]];verticalLabelPosition=bottom;html=1;verticalAlign=top;aspect=fixed;align=center;pointerEvents=1;shape=mxgraph.cisco19.rect;prIcon=router;fillColor=#F2CC8F;strokeColor=#E07A5F;fontColor=#393C56;fontSize=20;" parent="1" vertex="1">
                    <mxGeometry x="578" y="984.5" width="48" height="50" as="geometry"/>
                </mxCell>
                <mxCell id="72" style="edgeStyle=elbowEdgeStyle;orthogonalLoop=1;jettySize=auto;html=1;entryX=1.006;entryY=0.77;entryDx=0;entryDy=0;entryPerimeter=0;dashed=1;startArrow=none;startFill=0;exitX=0;exitY=0.75;exitDx=0;exitDy=0;exitPerimeter=0;strokeColor=#E07A5F;fontColor=#393C56;curved=1;fontSize=20;labelBackgroundColor=#F4F1DE;" parent="1" source="38" target="39" edge="1">
                    <mxGeometry relative="1" as="geometry">
                        <Array as="points">
                            <mxPoint x="1137" y="1052"/>
                            <mxPoint x="1112" y="1045"/>
                            <mxPoint x="1086" y="1045"/>
                            <mxPoint x="1064" y="1079"/>
                            <mxPoint x="1087" y="1076"/>
                        </Array>
                    </mxGeometry>
                </mxCell>
                <mxCell id="38" value="" style="points=[[0.015,0.015,0],[0.985,0.015,0],[0.985,0.985,0],[0.015,0.985,0],[0.25,0,0],[0.5,0,0],[0.75,0,0],[1,0.25,0],[1,0.5,0],[1,0.75,0],[0.75,1,0],[0.5,1,0],[0.25,1,0],[0,0.75,0],[0,0.5,0],[0,0.25,0]];verticalLabelPosition=bottom;html=1;verticalAlign=top;aspect=fixed;align=center;pointerEvents=1;shape=mxgraph.cisco19.rect;prIcon=database_relational;dashed=1;fillColor=#F2CC8F;strokeColor=#E07A5F;fontColor=#393C56;fontSize=20;" parent="1" vertex="1">
                    <mxGeometry x="1141" y="966" width="108.12" height="106" as="geometry"/>
                </mxCell>
                <mxCell id="67" style="edgeStyle=elbowEdgeStyle;orthogonalLoop=1;jettySize=auto;html=1;startArrow=classic;startFill=1;strokeColor=#E07A5F;fontColor=#393C56;curved=1;endArrow=classic;endFill=1;fontSize=20;labelBackgroundColor=#F4F1DE;" parent="1" source="39" target="43" edge="1">
                    <mxGeometry relative="1" as="geometry">
                        <mxPoint x="929" y="1023" as="targetPoint"/>
                        <Array as="points">
                            <mxPoint x="889" y="1011"/>
                            <mxPoint x="889" y="1059"/>
                            <mxPoint x="936" y="1023"/>
                            <mxPoint x="889" y="986"/>
                        </Array>
                    </mxGeometry>
                </mxCell>
                <mxCell id="71" style="edgeStyle=elbowEdgeStyle;orthogonalLoop=1;jettySize=auto;html=1;entryX=0;entryY=0.5;entryDx=0;entryDy=0;entryPerimeter=0;dashed=1;startArrow=none;startFill=0;strokeColor=#E07A5F;fontColor=#393C56;curved=1;fontSize=20;labelBackgroundColor=#F4F1DE;" parent="1" target="38" edge="1">
                    <mxGeometry relative="1" as="geometry">
                        <Array as="points"/>
                        <mxPoint x="1029.09" y="1018.5" as="sourcePoint"/>
                        <mxPoint x="1136.45896" y="1019.248" as="targetPoint"/>
                    </mxGeometry>
                </mxCell>
                <mxCell id="74" value="数据" style="edgeLabel;html=1;align=center;verticalAlign=middle;resizable=0;points=[];fontColor=#393C56;fontSize=16;labelBackgroundColor=#F4F1DE;" parent="71" vertex="1" connectable="0">
                    <mxGeometry x="0.478" y="-1" relative="1" as="geometry">
                        <mxPoint x="-31" y="26" as="offset"/>
                    </mxGeometry>
                </mxCell>
                <mxCell id="75" value="SQL" style="edgeLabel;html=1;align=center;verticalAlign=middle;resizable=0;points=[];fontColor=#393C56;fontSize=16;labelBackgroundColor=#F4F1DE;" parent="71" vertex="1" connectable="0">
                    <mxGeometry x="0.427" y="1" relative="1" as="geometry">
                        <mxPoint x="-30" y="1" as="offset"/>
                    </mxGeometry>
                </mxCell>
                <mxCell id="39" value="" style="points=[[0.015,0.015,0],[0.985,0.015,0],[0.985,0.985,0],[0.015,0.985,0],[0.25,0,0],[0.5,0,0],[0.75,0,0],[1,0.25,0],[1,0.5,0],[1,0.75,0],[0.75,1,0],[0.5,1,0],[0.25,1,0],[0,0.75,0],[0,0.5,0],[0,0.25,0]];verticalLabelPosition=bottom;html=1;verticalAlign=top;aspect=fixed;align=center;pointerEvents=1;shape=mxgraph.cisco19.server;strokeColor=none;fillColor=#F2CC8F;fontColor=#393C56;fontSize=20;" parent="1" vertex="1">
                    <mxGeometry x="951" y="940" width="78.09" height="137" as="geometry"/>
                </mxCell>
                <mxCell id="54" style="edgeStyle=orthogonalEdgeStyle;orthogonalLoop=1;jettySize=auto;html=1;entryX=0.5;entryY=0;entryDx=0;entryDy=0;entryPerimeter=0;startArrow=classic;startFill=1;strokeColor=#E07A5F;fontColor=#393C56;curved=1;endArrow=classic;endFill=1;fontSize=20;labelBackgroundColor=#F4F1DE;" parent="1" source="40" target="37" edge="1">
                    <mxGeometry relative="1" as="geometry">
                        <Array as="points">
                            <mxPoint x="602" y="913"/>
                        </Array>
                    </mxGeometry>
                </mxCell>
                <mxCell id="87" value="WebSocket &amp;amp; HTTP" style="edgeLabel;html=1;align=center;verticalAlign=middle;resizable=0;points=[];fontSize=16;labelBackgroundColor=#F4F1DE;fontColor=#393C56;" vertex="1" connectable="0" parent="54">
                    <mxGeometry x="-0.0844" y="-12" relative="1" as="geometry">
                        <mxPoint x="30" y="20" as="offset"/>
                    </mxGeometry>
                </mxCell>
                <mxCell id="40" value="" style="points=[[0.13,0.02,0],[0.5,0,0],[0.87,0.02,0],[0.885,0.4,0],[0.985,0.985,0],[0.5,1,0],[0.015,0.985,0],[0.115,0.4,0]];verticalLabelPosition=bottom;html=1;verticalAlign=top;aspect=fixed;align=center;pointerEvents=1;shape=mxgraph.cisco19.laptop;strokeColor=none;fillColor=#F2CC8F;fontColor=#393C56;fontSize=20;" parent="1" vertex="1">
                    <mxGeometry x="430.5" y="895" width="48" height="35" as="geometry"/>
                </mxCell>
                <mxCell id="53" style="edgeStyle=orthogonalEdgeStyle;orthogonalLoop=1;jettySize=auto;html=1;startArrow=classic;strokeColor=#E07A5F;fontColor=#393C56;curved=1;endArrow=classic;endFill=1;startFill=1;fontSize=20;labelBackgroundColor=#F4F1DE;" parent="1" source="41" target="37" edge="1">
                    <mxGeometry relative="1" as="geometry"/>
                </mxCell>
                <mxCell id="41" value="" style="points=[[0.015,0.015,0],[0.985,0.015,0],[0.985,0.985,0],[0.015,0.985,0],[0.25,0,0],[0.5,0,0],[0.75,0,0],[1,0.25,0],[1,0.5,0],[1,0.75,0],[0.75,1,0],[0.5,1,0],[0.25,1,0],[0,0.75,0],[0,0.5,0],[0,0.25,0]];verticalLabelPosition=bottom;html=1;verticalAlign=top;aspect=fixed;align=center;pointerEvents=1;shape=mxgraph.cisco19.cell_phone;strokeColor=none;fillColor=#F2CC8F;fontColor=#393C56;fontSize=20;" parent="1" vertex="1">
                    <mxGeometry x="443" y="984.5" width="23" height="50" as="geometry"/>
                </mxCell>
                <mxCell id="47" style="edgeStyle=orthogonalEdgeStyle;orthogonalLoop=1;jettySize=auto;html=1;entryX=0.5;entryY=1;entryDx=0;entryDy=0;entryPerimeter=0;startArrow=classic;strokeColor=#E07A5F;fontColor=#393C56;curved=1;endArrow=classic;endFill=1;startFill=1;fontSize=20;labelBackgroundColor=#F4F1DE;" parent="1" source="42" target="37" edge="1">
                    <mxGeometry relative="1" as="geometry">
                        <Array as="points">
                            <mxPoint x="602" y="1122"/>
                        </Array>
                    </mxGeometry>
                </mxCell>
                <mxCell id="42" value="" style="points=[[0.015,0.015,0],[0.985,0.015,0],[0.985,0.985,0],[0.015,0.985,0],[0.25,0,0],[0.5,0,0],[0.75,0,0],[1,0.25,0],[1,0.5,0],[1,0.75,0],[0.75,1,0],[0.5,1,0],[0.25,1,0],[0,0.75,0],[0,0.5,0],[0,0.25,0]];verticalLabelPosition=bottom;html=1;verticalAlign=top;aspect=fixed;align=center;pointerEvents=1;shape=mxgraph.cisco19.handheld;strokeColor=none;fillColor=#F2CC8F;fontColor=#393C56;fontSize=20;" parent="1" vertex="1">
                    <mxGeometry x="436.75" y="1097" width="35.5" height="50" as="geometry"/>
                </mxCell>
                <mxCell id="43" value="" style="points=[[0,0.64,0],[0.2,0.15,0],[0.4,0.01,0],[0.79,0.25,0],[1,0.65,0],[0.8,0.86,0],[0.41,1,0],[0.16,0.86,0]];verticalLabelPosition=bottom;html=1;verticalAlign=top;aspect=fixed;align=center;pointerEvents=1;shape=mxgraph.cisco19.cloud2;strokeColor=none;fillColor=#F2CC8F;fontColor=#393C56;fontSize=20;" parent="1" vertex="1">
                    <mxGeometry x="707" y="972" width="155" height="93" as="geometry"/>
                </mxCell>
                <mxCell id="70" style="edgeStyle=elbowEdgeStyle;orthogonalLoop=1;jettySize=auto;html=1;startArrow=none;startFill=0;dashed=1;entryX=0.966;entryY=0.426;entryDx=0;entryDy=0;entryPerimeter=0;strokeColor=#E07A5F;fontColor=#393C56;curved=1;exitX=0.956;exitY=0.141;exitDx=0;exitDy=0;exitPerimeter=0;fontSize=20;labelBackgroundColor=#F4F1DE;" parent="1" source="39" target="39" edge="1">
                    <mxGeometry relative="1" as="geometry">
                        <mxPoint x="1034" y="916" as="targetPoint"/>
                        <Array as="points">
                            <mxPoint x="1098" y="944"/>
                            <mxPoint x="1084" y="978"/>
                            <mxPoint x="1072" y="996"/>
                            <mxPoint x="1080" y="1026"/>
                            <mxPoint x="1080" y="1035"/>
                            <mxPoint x="1050" y="1030"/>
                            <mxPoint x="981" y="989"/>
                        </Array>
                    </mxGeometry>
                </mxCell>
                <mxCell id="76" value="缓存" style="edgeLabel;html=1;align=center;verticalAlign=middle;resizable=0;points=[];fontColor=#393C56;fontSize=16;labelBackgroundColor=#F4F1DE;" parent="70" vertex="1" connectable="0">
                    <mxGeometry x="-0.5429" relative="1" as="geometry">
                        <mxPoint x="8" y="18" as="offset"/>
                    </mxGeometry>
                </mxCell>
                <mxCell id="78" value="&lt;font style=&quot;font-size: 18px;&quot;&gt;chat-backend&lt;br style=&quot;font-size: 18px;&quot;&gt;总体设计图&lt;/font&gt;&lt;br style=&quot;font-size: 18px;&quot;&gt;&lt;br style=&quot;font-size: 18px;&quot;&gt;author:_Sharp__&lt;br style=&quot;font-size: 18px;&quot;&gt;email:2742340771@qq.com" style="whiteSpace=wrap;html=1;dashed=1;fillColor=#F2CC8F;strokeColor=#E07A5F;fontColor=#393C56;fontSize=18;" parent="1" vertex="1">
                    <mxGeometry x="399" y="598" width="240" height="185" as="geometry"/>
                </mxCell>
                <mxCell id="79" value="&lt;h1 style=&quot;font-size: 18px;&quot;&gt;注释&lt;/h1&gt;&lt;p style=&quot;font-size: 18px;&quot;&gt;&lt;span style=&quot;text-align: center; font-size: 18px;&quot;&gt;1. 其中双向箭头表示客户端与服务器的websocket链接&lt;/span&gt;&lt;/p&gt;&lt;p style=&quot;font-size: 18px;&quot;&gt;(客户端之间没websocket连接)&lt;/p&gt;&lt;p style=&quot;font-size: 18px;&quot;&gt;&lt;span style=&quot;text-align: center; font-size: 18px;&quot;&gt;2. 其中单项虚线箭头表示服务器内部逻辑&lt;/span&gt;&lt;br style=&quot;font-size: 18px;&quot;&gt;&lt;/p&gt;" style="text;html=1;strokeColor=none;fillColor=none;spacing=5;spacingTop=-20;whiteSpace=wrap;overflow=hidden;dashed=1;fontColor=#393C56;fontSize=18;" parent="1" vertex="1">
                    <mxGeometry x="597.9999999999999" y="1314" width="147" height="184" as="geometry"/>
                </mxCell>
                <mxCell id="80" value="&lt;span style=&quot;font-size: 20px;&quot;&gt;Client A&lt;/span&gt;" style="text;html=1;strokeColor=none;fillColor=none;align=center;verticalAlign=middle;whiteSpace=wrap;fontColor=#393C56;fontSize=20;" parent="1" vertex="1">
                    <mxGeometry x="346.75" y="889.5" width="90" height="46" as="geometry"/>
                </mxCell>
                <mxCell id="81" value="Server" style="text;html=1;strokeColor=none;fillColor=none;align=center;verticalAlign=middle;whiteSpace=wrap;fontSize=20;fontColor=#393C56;" parent="1" vertex="1">
                    <mxGeometry x="934" y="898" width="110" height="54" as="geometry"/>
                </mxCell>
                <mxCell id="82" value="Database" style="text;html=1;strokeColor=none;fillColor=none;align=center;verticalAlign=middle;whiteSpace=wrap;fontSize=20;fontColor=#393C56;" parent="1" vertex="1">
                    <mxGeometry x="1137.59" y="923" width="114.94" height="50" as="geometry"/>
                </mxCell>
                <mxCell id="83" value="Network" style="text;html=1;strokeColor=none;fillColor=none;align=center;verticalAlign=middle;whiteSpace=wrap;fontSize=20;fontColor=#393C56;" parent="1" vertex="1">
                    <mxGeometry x="729.5" y="1046" width="110" height="66" as="geometry"/>
                </mxCell>
                <mxCell id="84" value="&lt;span style=&quot;font-size: 20px;&quot;&gt;Client C&lt;/span&gt;" style="text;html=1;strokeColor=none;fillColor=none;align=center;verticalAlign=middle;whiteSpace=wrap;fontColor=#393C56;fontSize=20;" vertex="1" parent="1">
                    <mxGeometry x="340.5" y="1097" width="90" height="46" as="geometry"/>
                </mxCell>
                <mxCell id="85" value="&lt;span style=&quot;font-size: 20px;&quot;&gt;Client B&lt;/span&gt;" style="text;html=1;strokeColor=none;fillColor=none;align=center;verticalAlign=middle;whiteSpace=wrap;fontColor=#393C56;fontSize=20;" vertex="1" parent="1">
                    <mxGeometry x="346.75" y="984.5" width="90" height="46" as="geometry"/>
                </mxCell>
            </root>
        </mxGraphModel>
    </diagram>
</mxfile>